# xmcd
# Copyright (C) 1995-1998 Ti Kan
#
# Track frame offsets:
#       150
#       14886
#       36129
#       53117
#       73640
#       92001
#       103932
#       127236
#       146137
#       160211
#
# Disc length: 2481 seconds
#
# Revision: 0
# Processed by: cddbd v1.5.2PL0 Copyright (c) Steve Scherf et al.
# Submitted via: CD-Transfer v1.0
#
DISCID=9609af0a
DTITLE=Vobler - D. Sarkotiæ, G. Runjaiæ, D. Lupis, H. Èehiæ
DYEAR=12
DGENRE=
TTITLE0=Nestani
TTITLE1=Daleko Od Svih
TTITLE2=Znam
TTITLE3=Pomiri Se S Tim
TTITLE4=Jedna Istina
TTITLE5=Tragovi
TTITLE6=Sam
TTITLE7=Ponovo Roðen
TTITLE8=Vjetrom
TTITLE9=U Mraku
EXTD=
EXTT0=
EXTT1=
EXTT2=
EXTT3=
EXTT4=
EXTT5=
EXTT6=
EXTT7=
EXTT8=
EXTT9=
PLAYORDER=
